<?xml version="1.0" encoding="UTF-8"?>
<svg id="Layer_2" data-name="Layer 2" xmlns="http://www.w3.org/2000/svg" xmlns:xlink="http://www.w3.org/1999/xlink" viewBox="0 0 5119.52 3071.71">
  <defs>
    <style>
      .cls-1, .cls-2, .cls-3 {
        fill: none;
      }

      .cls-2 {
        stroke-width: 10.24px;
      }

      .cls-2, .cls-3 {
        stroke: #ceae76;
        stroke-linejoin: round;
      }

      .cls-3 {
        stroke-width: 5.12px;
      }

      .cls-4 {
        clip-path: url(#clippath);
      }
    </style>
    <clipPath id="clippath">
      <rect class="cls-1" width="5119.52" height="3071.71"/>
    </clipPath>
  </defs>
  <g id="Layer_1-2" data-name="Layer 1">
    <g class="cls-4">
      <g>
        <g>
          <g>
            <line class="cls-3" x1="3403.39" y1="2090.2" x2="3287.89" y2="2224.03"/>
            <line class="cls-3" x1="3348" y1="1889.01" x2="3086.9" y2="2279.32"/>
            <line class="cls-3" x1="3247.55" y1="1710.85" x2="2908.23" y2="2379.97"/>
            <line class="cls-3" x1="3109.73" y1="1563.1" x2="2760.58" y2="2517.89"/>
            <line class="cls-3" x1="2942.84" y1="1452.72" x2="2650.41" y2="2684.27"/>
            <line class="cls-3" x1="2756.08" y1="1384.53" x2="2582.42" y2="2869.8"/>
            <line class="cls-3" x1="2559.23" y1="3068.16" x2="2559.23" y2="1361.66"/>
            <line class="cls-3" x1="2536.14" y1="2869.8" x2="2362.49" y2="1384.53"/>
            <line class="cls-3" x1="2468.05" y1="2684.17" x2="2175.63" y2="1452.72"/>
            <line class="cls-3" x1="2357.98" y1="2517.89" x2="2008.83" y2="1563.1"/>
            <line class="cls-3" x1="2210.34" y1="2379.97" x2="1871.02" y2="1710.85"/>
            <line class="cls-3" x1="2031.67" y1="2279.32" x2="1770.57" y2="1889.01"/>
            <line class="cls-3" x1="1830.57" y1="2224.03" x2="1715.18" y2="2090.31"/>
          </g>
          <path class="cls-2" d="M1706.03,2214.93c0-471.24,382.01-853.25,853.25-853.25s853.25,382.01,853.25,853.25"/>
        </g>
        <g>
          <g>
            <line class="cls-3" x1="1696.93" y1="2090.22" x2="1581.44" y2="2224.05"/>
            <line class="cls-3" x1="1641.54" y1="1889.03" x2="1380.44" y2="2279.34"/>
            <line class="cls-3" x1="1541.09" y1="1710.87" x2="1201.77" y2="2379.99"/>
            <line class="cls-3" x1="1403.28" y1="1563.12" x2="1054.12" y2="2517.91"/>
            <line class="cls-3" x1="1236.38" y1="1452.74" x2="943.95" y2="2684.29"/>
            <line class="cls-3" x1="1049.62" y1="1384.55" x2="875.97" y2="2869.82"/>
            <line class="cls-3" x1="852.78" y1="3068.18" x2="852.78" y2="1361.68"/>
            <line class="cls-3" x1="829.68" y1="2869.82" x2="656.03" y2="1384.55"/>
            <line class="cls-3" x1="761.6" y1="2684.19" x2="469.17" y2="1452.74"/>
            <line class="cls-3" x1="651.53" y1="2517.91" x2="302.37" y2="1563.12"/>
            <line class="cls-3" x1="503.88" y1="2379.99" x2="164.56" y2="1710.87"/>
            <line class="cls-3" x1="325.21" y1="2279.34" x2="64.11" y2="1889.03"/>
            <line class="cls-3" x1="124.11" y1="2224.05" x2="8.72" y2="2090.33"/>
          </g>
          <path class="cls-2" d="M-.43,2214.95c0-471.24,382.01-853.25,853.25-853.25s853.25,382.01,853.25,853.25"/>
        </g>
        <g>
          <g>
            <line class="cls-3" x1="5109.89" y1="2090.2" x2="4994.39" y2="2224.03"/>
            <line class="cls-3" x1="5054.5" y1="1889.01" x2="4793.4" y2="2279.32"/>
            <line class="cls-3" x1="4954.05" y1="1710.85" x2="4614.73" y2="2379.97"/>
            <line class="cls-3" x1="4816.23" y1="1563.1" x2="4467.08" y2="2517.89"/>
            <line class="cls-3" x1="4649.34" y1="1452.72" x2="4356.91" y2="2684.27"/>
            <line class="cls-3" x1="4462.58" y1="1384.53" x2="4288.92" y2="2869.8"/>
            <line class="cls-3" x1="4265.73" y1="3068.16" x2="4265.73" y2="1361.66"/>
            <line class="cls-3" x1="4242.64" y1="2869.8" x2="4068.99" y2="1384.53"/>
            <line class="cls-3" x1="4174.55" y1="2684.17" x2="3882.13" y2="1452.72"/>
            <line class="cls-3" x1="4064.48" y1="2517.89" x2="3715.33" y2="1563.1"/>
            <line class="cls-3" x1="3916.84" y1="2379.97" x2="3577.52" y2="1710.85"/>
            <line class="cls-3" x1="3738.17" y1="2279.32" x2="3477.07" y2="1889.01"/>
            <line class="cls-3" x1="3537.07" y1="2224.03" x2="3421.68" y2="2090.31"/>
          </g>
          <path class="cls-2" d="M3412.53,2214.93c0-471.24,382.01-853.25,853.25-853.25s853.25,382.01,853.25,853.25"/>
        </g>
        <g>
          <g>
            <line class="cls-3" x1="3403.27" y1="383.64" x2="3287.77" y2="517.47"/>
            <line class="cls-3" x1="3347.87" y1="182.44" x2="3086.78" y2="572.76"/>
            <line class="cls-3" x1="3247.43" y1="4.29" x2="2908.11" y2="673.41"/>
            <line class="cls-3" x1="3109.61" y1="-143.46" x2="2760.46" y2="811.33"/>
            <line class="cls-3" x1="2942.71" y1="-253.84" x2="2650.29" y2="977.71"/>
            <line class="cls-3" x1="2755.95" y1="-322.03" x2="2582.3" y2="1163.24"/>
            <line class="cls-3" x1="2559.11" y1="1361.6" x2="2559.11" y2="-344.9"/>
            <line class="cls-3" x1="2536.02" y1="1163.24" x2="2362.37" y2="-322.03"/>
            <line class="cls-3" x1="2467.93" y1="977.61" x2="2175.5" y2="-253.84"/>
            <line class="cls-3" x1="2357.86" y1="811.33" x2="2008.71" y2="-143.46"/>
            <line class="cls-3" x1="2210.21" y1="673.41" x2="1870.89" y2="4.29"/>
            <line class="cls-3" x1="2031.54" y1="572.76" x2="1770.45" y2="182.44"/>
            <line class="cls-3" x1="1830.45" y1="517.47" x2="1715.05" y2="383.74"/>
          </g>
          <path class="cls-2" d="M1705.9,508.37c0-471.24,382.01-853.25,853.25-853.25s853.25,382.01,853.25,853.25"/>
        </g>
        <g>
          <g>
            <line class="cls-3" x1="1696.81" y1="383.66" x2="1581.31" y2="517.49"/>
            <line class="cls-3" x1="1641.41" y1="182.47" x2="1380.32" y2="572.78"/>
            <line class="cls-3" x1="1540.97" y1="4.31" x2="1201.65" y2="673.43"/>
            <line class="cls-3" x1="1403.15" y1="-143.44" x2="1054" y2="811.35"/>
            <line class="cls-3" x1="1236.26" y1="-253.82" x2="943.83" y2="977.73"/>
            <line class="cls-3" x1="1049.5" y1="-322.01" x2="875.84" y2="1163.26"/>
            <line class="cls-3" x1="852.65" y1="1361.62" x2="852.65" y2="-344.88"/>
            <line class="cls-3" x1="829.56" y1="1163.26" x2="655.91" y2="-322.01"/>
            <line class="cls-3" x1="761.47" y1="977.63" x2="469.04" y2="-253.82"/>
            <line class="cls-3" x1="651.4" y1="811.35" x2="302.25" y2="-143.44"/>
            <line class="cls-3" x1="503.76" y1="673.43" x2="164.43" y2="4.31"/>
            <line class="cls-3" x1="325.08" y1="572.78" x2="63.99" y2="182.47"/>
            <line class="cls-3" x1="123.99" y1="517.49" x2="8.6" y2="383.76"/>
          </g>
          <path class="cls-2" d="M-.56,508.39C-.56,37.15,381.46-344.86,852.69-344.86S1705.94,37.15,1705.94,508.39"/>
        </g>
        <g>
          <g>
            <line class="cls-3" x1="5109.77" y1="383.64" x2="4994.27" y2="517.47"/>
            <line class="cls-3" x1="5054.37" y1="182.44" x2="4793.28" y2="572.76"/>
            <line class="cls-3" x1="4953.93" y1="4.29" x2="4614.61" y2="673.41"/>
            <line class="cls-3" x1="4816.11" y1="-143.46" x2="4466.96" y2="811.33"/>
            <line class="cls-3" x1="4649.21" y1="-253.84" x2="4356.79" y2="977.71"/>
            <line class="cls-3" x1="4462.45" y1="-322.03" x2="4288.8" y2="1163.24"/>
            <line class="cls-3" x1="4265.61" y1="1361.6" x2="4265.61" y2="-344.9"/>
            <line class="cls-3" x1="4242.52" y1="1163.24" x2="4068.87" y2="-322.03"/>
            <line class="cls-3" x1="4174.43" y1="977.61" x2="3882" y2="-253.84"/>
            <line class="cls-3" x1="4064.36" y1="811.33" x2="3715.21" y2="-143.46"/>
            <line class="cls-3" x1="3916.71" y1="673.41" x2="3577.39" y2="4.29"/>
            <line class="cls-3" x1="3738.04" y1="572.76" x2="3476.95" y2="182.44"/>
            <line class="cls-3" x1="3536.95" y1="517.47" x2="3421.55" y2="383.74"/>
          </g>
          <path class="cls-2" d="M3412.4,508.37c0-471.24,382.01-853.25,853.25-853.25s853.25,382.01,853.25,853.25"/>
        </g>
        <g>
          <g>
            <line class="cls-3" x1="2550.1" y1="1236.93" x2="2434.6" y2="1370.76"/>
            <line class="cls-3" x1="2494.71" y1="1035.74" x2="2233.61" y2="1426.05"/>
            <line class="cls-3" x1="2394.26" y1="857.58" x2="2054.94" y2="1526.7"/>
            <line class="cls-3" x1="2256.44" y1="709.83" x2="1907.29" y2="1664.62"/>
            <line class="cls-3" x1="2089.55" y1="599.45" x2="1797.12" y2="1831"/>
            <line class="cls-3" x1="1902.79" y1="531.26" x2="1729.13" y2="2016.53"/>
            <line class="cls-3" x1="1705.94" y1="2214.89" x2="1705.94" y2="508.39"/>
            <line class="cls-3" x1="1682.85" y1="2016.53" x2="1509.2" y2="531.26"/>
            <line class="cls-3" x1="1614.76" y1="1830.9" x2="1322.34" y2="599.45"/>
            <line class="cls-3" x1="1504.69" y1="1664.62" x2="1155.54" y2="709.83"/>
            <line class="cls-3" x1="1357.05" y1="1526.7" x2="1017.72" y2="857.58"/>
            <line class="cls-3" x1="1178.38" y1="1426.05" x2="917.28" y2="1035.74"/>
            <line class="cls-3" x1="977.28" y1="1370.76" x2="861.89" y2="1237.03"/>
          </g>
          <path class="cls-2" d="M852.73,1361.66c0-471.24,382.01-853.25,853.25-853.25s853.25,382.01,853.25,853.25"/>
        </g>
        <g>
          <g>
            <line class="cls-3" x1="843.64" y1="1236.95" x2="728.14" y2="1370.78"/>
            <line class="cls-3" x1="788.25" y1="1035.76" x2="527.15" y2="1426.07"/>
            <line class="cls-3" x1="687.8" y1="857.6" x2="348.48" y2="1526.72"/>
            <line class="cls-3" x1="549.98" y1="709.85" x2="200.83" y2="1664.64"/>
            <line class="cls-3" x1="383.09" y1="599.47" x2="90.66" y2="1831.02"/>
            <line class="cls-3" x1="196.33" y1="531.28" x2="22.67" y2="2016.55"/>
            <line class="cls-3" x1="-.52" y1="2214.91" x2="-.52" y2="508.41"/>
          </g>
          <path class="cls-2" d="M-.47,508.43c471.24,0,853.25,382.01,853.25,853.25"/>
        </g>
        <g>
          <g>
            <line class="cls-3" x1="4256.6" y1="1236.93" x2="4141.1" y2="1370.76"/>
            <line class="cls-3" x1="4201.21" y1="1035.74" x2="3940.11" y2="1426.05"/>
            <line class="cls-3" x1="4100.76" y1="857.58" x2="3761.44" y2="1526.7"/>
            <line class="cls-3" x1="3962.94" y1="709.83" x2="3613.79" y2="1664.62"/>
            <line class="cls-3" x1="3796.05" y1="599.45" x2="3503.62" y2="1831"/>
            <line class="cls-3" x1="3609.29" y1="531.26" x2="3435.63" y2="2016.53"/>
            <line class="cls-3" x1="3412.44" y1="2214.89" x2="3412.44" y2="508.39"/>
            <line class="cls-3" x1="3389.35" y1="2016.53" x2="3215.7" y2="531.26"/>
            <line class="cls-3" x1="3321.26" y1="1830.9" x2="3028.84" y2="599.45"/>
            <line class="cls-3" x1="3211.19" y1="1664.62" x2="2862.04" y2="709.83"/>
            <line class="cls-3" x1="3063.55" y1="1526.7" x2="2724.22" y2="857.58"/>
            <line class="cls-3" x1="2884.87" y1="1426.05" x2="2623.78" y2="1035.74"/>
            <line class="cls-3" x1="2683.78" y1="1370.76" x2="2568.39" y2="1237.03"/>
          </g>
          <path class="cls-2" d="M2559.23,1361.66c0-471.24,382.01-853.25,853.25-853.25s853.25,382.01,853.25,853.25"/>
        </g>
        <g>
          <g>
            <line class="cls-3" x1="5118.94" y1="2214.91" x2="5118.94" y2="508.41"/>
            <line class="cls-3" x1="5095.85" y1="2016.55" x2="4922.2" y2="531.28"/>
            <line class="cls-3" x1="5027.76" y1="1830.92" x2="4735.34" y2="599.47"/>
            <line class="cls-3" x1="4917.69" y1="1664.64" x2="4568.54" y2="709.85"/>
            <line class="cls-3" x1="4770.05" y1="1526.72" x2="4430.72" y2="857.59"/>
            <line class="cls-3" x1="4591.37" y1="1426.07" x2="4330.28" y2="1035.75"/>
            <line class="cls-3" x1="4390.28" y1="1370.78" x2="4274.89" y2="1237.05"/>
          </g>
          <path class="cls-2" d="M4265.73,1361.68c0-471.24,382.01-853.25,853.25-853.25"/>
        </g>
        <g>
          <g>
            <line class="cls-3" x1="2550.14" y1="2943.45" x2="2434.64" y2="3077.28"/>
            <line class="cls-3" x1="2494.75" y1="2742.26" x2="2233.65" y2="3132.57"/>
            <line class="cls-3" x1="2394.3" y1="2564.1" x2="2054.98" y2="3233.22"/>
            <line class="cls-3" x1="2256.48" y1="2416.35" x2="1907.33" y2="3371.14"/>
            <line class="cls-3" x1="2089.59" y1="2305.97" x2="1797.16" y2="3537.52"/>
            <line class="cls-3" x1="1902.83" y1="2237.78" x2="1729.17" y2="3723.05"/>
            <line class="cls-3" x1="1705.98" y1="3921.41" x2="1705.98" y2="2214.91"/>
            <line class="cls-3" x1="1682.89" y1="3723.05" x2="1509.24" y2="2237.78"/>
            <line class="cls-3" x1="1614.8" y1="3537.42" x2="1322.38" y2="2305.97"/>
            <line class="cls-3" x1="1504.73" y1="3371.14" x2="1155.58" y2="2416.35"/>
            <line class="cls-3" x1="1357.09" y1="3233.22" x2="1017.77" y2="2564.1"/>
            <line class="cls-3" x1="1178.42" y1="3132.57" x2="917.32" y2="2742.26"/>
            <line class="cls-3" x1="977.32" y1="3077.28" x2="861.93" y2="2943.56"/>
          </g>
          <path class="cls-2" d="M852.78,3068.18c0-471.24,382.01-853.25,853.25-853.25s853.25,382.01,853.25,853.25"/>
        </g>
        <g>
          <g>
            <line class="cls-3" x1="843.68" y1="2943.47" x2="728.19" y2="3077.3"/>
            <line class="cls-3" x1="788.29" y1="2742.28" x2="527.19" y2="3132.59"/>
            <line class="cls-3" x1="687.84" y1="2564.12" x2="348.52" y2="3233.24"/>
            <line class="cls-3" x1="550.03" y1="2416.37" x2="200.87" y2="3371.16"/>
            <line class="cls-3" x1="383.13" y1="2305.99" x2="90.7" y2="3537.54"/>
            <line class="cls-3" x1="196.37" y1="2237.8" x2="22.72" y2="3723.07"/>
            <line class="cls-3" x1="-.47" y1="3921.43" x2="-.47" y2="2214.93"/>
          </g>
          <path class="cls-2" d="M-.43,2214.95c471.24,0,853.25,382.01,853.25,853.25"/>
        </g>
        <g>
          <g>
            <line class="cls-3" x1="4256.64" y1="2943.45" x2="4141.14" y2="3077.28"/>
            <line class="cls-3" x1="4201.25" y1="2742.26" x2="3940.15" y2="3132.57"/>
            <line class="cls-3" x1="4100.8" y1="2564.1" x2="3761.48" y2="3233.22"/>
            <line class="cls-3" x1="3962.98" y1="2416.35" x2="3613.83" y2="3371.14"/>
            <line class="cls-3" x1="3796.09" y1="2305.97" x2="3503.66" y2="3537.52"/>
            <line class="cls-3" x1="3609.33" y1="2237.78" x2="3435.67" y2="3723.05"/>
            <line class="cls-3" x1="3412.48" y1="3921.41" x2="3412.48" y2="2214.91"/>
            <line class="cls-3" x1="3389.39" y1="3723.05" x2="3215.74" y2="2237.78"/>
            <line class="cls-3" x1="3321.3" y1="3537.42" x2="3028.88" y2="2305.97"/>
            <line class="cls-3" x1="3211.23" y1="3371.14" x2="2862.08" y2="2416.35"/>
            <line class="cls-3" x1="3063.59" y1="3233.22" x2="2724.27" y2="2564.1"/>
            <line class="cls-3" x1="2884.92" y1="3132.57" x2="2623.82" y2="2742.26"/>
            <line class="cls-3" x1="2683.82" y1="3077.28" x2="2568.43" y2="2943.56"/>
          </g>
          <path class="cls-2" d="M2559.28,3068.18c0-471.24,382.01-853.25,853.25-853.25s853.25,382.01,853.25,853.25"/>
        </g>
        <g>
          <g>
            <line class="cls-3" x1="5118.98" y1="3921.43" x2="5118.98" y2="2214.93"/>
            <line class="cls-3" x1="5095.89" y1="3723.07" x2="4922.24" y2="2237.8"/>
            <line class="cls-3" x1="5027.8" y1="3537.44" x2="4735.38" y2="2305.99"/>
            <line class="cls-3" x1="4917.73" y1="3371.16" x2="4568.58" y2="2416.37"/>
            <line class="cls-3" x1="4770.09" y1="3233.24" x2="4430.77" y2="2564.11"/>
            <line class="cls-3" x1="4591.42" y1="3132.59" x2="4330.32" y2="2742.27"/>
            <line class="cls-3" x1="4390.32" y1="3077.3" x2="4274.93" y2="2943.57"/>
          </g>
          <path class="cls-2" d="M4265.78,3068.2c0-471.24,382.01-853.25,853.25-853.25"/>
        </g>
      </g>
    </g>
  </g>
</svg>