<?xml version="1.0" encoding="UTF-8"?>
<svg id="Calque_1" data-name="Calque 1" xmlns="http://www.w3.org/2000/svg" viewBox="0 0 4138.5 2359.36">
  <defs>
    <style>
      .cls-1 {
        fill: #ceae76;
      }
    </style>
  </defs>
  <path class="cls-1" d="M3289.44,48.72h309.44l98.18,93.45,38.18-38.18,122.01.02v49.48h-60v187.71h187.71v-60h49.45v122.42l-38.07,38.08,93.46,98.18v309.44l-38.17,38.17,43.44,43.44,43.44-43.44-38.17-38.17v-313.66l-54.29-57.03,54.29-59.32v-148.65h-55.38v-44.13h55.38V38.24h-188.27v55.23h-44.26v-55.3h-148.34l-59.32,54.29-57.03-54.29h-313.66l-38.17-38.17-43.44,43.44,43.44,43.44,38.17-38.17h0ZM4095.06,916l-28.52-28.52,28.52-28.52,28.52,28.52-28.52,28.52ZM3974.41,330.65h-166.61v-166.61h49.45v117.16h117.16v49.45h0ZM4034.41,215.96h-49.45v-62.47h-62.34v-49.47l111.79.02v111.92ZM3974.41,164.04v51.92h-51.79v-51.92h51.79ZM3974.41,226.52v44.14h-106.61v-106.61h44.26v62.48h62.35ZM4011.07,441.88l28.61-28.61,27.09,27.09-28.01,30.61-27.69-29.08h0ZM4089.78,281.2v134l-15.89,17.36-28.94-28.94v-122.42h44.83ZM4034.41,270.65h-49.45v-44.13h49.45v44.13ZM3922.61,48.79h167.17v167.17h-44.83v-122.47l-122.34-.02v-44.68h0ZM3912.06,104.02v49.47h-44.26v-49.48s44.26,0,44.26,0ZM3723.55,48.72h133.69v44.74l-122.22-.02-28.83-28.83,17.36-15.89h0ZM3698.4,71.74l27.09,27.09-28.61,28.61-29.08-27.68,30.61-28.01h0ZM3251.28,14.92l28.52,28.52-28.52,28.52-28.52-28.52s28.52-28.52,28.52-28.52Z"/>
  <path class="cls-1" d="M4095.06,1428.69l-43.44,43.44,38.17,38.17v309.44l-93.46,98.18,38.18,38.18-.02,122.01h-49.48v-60h-187.71v187.71h60v49.45h-122.42l-38.07-38.07-98.18,93.45h-309.44l-38.17-38.17-43.44,43.44,43.44,43.44,38.17-38.17h313.66l57.03-54.29,59.32,54.29h148.65v-55.38h44.14v55.38h188.27v-188.27h-55.23v-44.26h55.3v-148.34l-54.29-59.32,54.29-57.03v-313.66l38.17-38.17-43.44-43.44h0ZM3251.02,2344.44l-28.52-28.52,28.52-28.52,28.52,28.52-28.52,28.52ZM3807.86,2195.26v-166.61h166.61v49.45h-117.16v117.16h-49.45ZM3985.01,2143.47h49.47l-.02,111.79h-111.92v-49.45h62.48v-62.34h0ZM3974.46,2195.26h-51.92v-51.79h51.92v51.79ZM3911.99,2132.92v62.34h-44.14v-106.61h106.61v44.26h-62.48ZM3696.62,2231.93l28.61,28.61-27.09,27.09-30.61-28.01,29.08-27.69h0ZM3857.3,2310.64h-134l-17.36-15.89,28.94-28.94h122.42v44.83h0ZM3867.85,2255.26v-49.45h44.14v49.45h-44.14ZM4089.71,2143.47v167.17h-167.17v-44.83h122.47l.02-122.34h44.68ZM4034.48,2132.92h-49.47v-44.26h49.48v44.26ZM4089.79,2078.1h-44.74l.02-122.22,28.83-28.83,15.89,17.36v133.69ZM4066.77,1919.26l-27.09,27.09-28.61-28.61,27.69-29.08,28.01,30.61h0ZM4095.06,1443.62l28.52,28.52-28.52,28.52-28.52-28.52,28.52-28.52Z"/>
  <path class="cls-1" d="M849.06,2310.64h-309.44l-98.18-93.45-38.18,38.18-122.01-.02v-49.48h60v-187.71h-187.71v60h-49.45v-122.42l38.07-38.07-93.45-98.18v-309.44l38.17-38.17-43.44-43.44L0,1471.88l38.17,38.17v313.66l54.29,57.03-54.29,59.32v148.65h55.38v44.14h-55.38v188.27h188.27v-55.23h44.26v55.3h148.34l59.32-54.29,57.03,54.29h313.66l38.17,38.17,43.44-43.44-43.44-43.44-38.17,38.17h0ZM43.44,1443.36l28.52,28.52-28.52,28.52-28.52-28.52s28.52-28.52,28.52-28.52ZM164.09,2028.71h166.61v166.61h-49.45v-117.16h-117.16v-49.44h0ZM104.1,2143.39h49.45v62.48h62.35v49.47l-111.79-.02s0-111.92,0-111.92ZM164.09,2195.32v-51.92h51.79v51.92h-51.79,0ZM164.09,2132.84v-44.14h106.61v106.61h-44.26v-62.48h-62.35ZM127.43,1917.48l-28.61,28.61-27.09-27.09,28.01-30.61,27.69,29.08h0ZM48.72,2078.15v-134l15.89-17.36,28.94,28.94v122.42h-44.83,0ZM104.1,2088.71h49.45v44.14h-49.45v-44.14ZM215.89,2310.56H48.72v-167.17h44.83v122.47l122.34.02v44.68h0ZM226.44,2255.33v-49.47h44.26v49.48h-44.26ZM414.95,2310.64h-133.69v-44.74l122.22.02,28.83,28.83-17.36,15.89h0ZM440.1,2287.62l-27.09-27.09,28.61-28.61,29.08,27.69-30.61,28.01h0ZM887.22,2344.43l-28.52-28.52,28.52-28.52,28.52,28.52-28.52,28.52Z"/>
  <path class="cls-1" d="M849.31,38.17h-313.66l-57.03,54.29-59.32-54.29h-148.65v55.38h-44.13v-55.38H38.24v188.27h55.23v44.26h-55.3v148.34l54.29,59.32-54.29,57.03v313.66L0,887.22l43.44,43.44,43.44-43.44-38.17-38.16v-309.44l93.45-98.18-38.18-38.18.02-122.01h49.48v60h187.71v-187.71h-60v-49.45h122.42l38.08,38.07,98.18-93.46h309.44l38.17,38.17,43.44-43.44L887.48,0l-38.17,38.17ZM43.44,915.74l-28.52-28.52,28.52-28.52,28.52,28.52s-28.52,28.52-28.52,28.52ZM48.79,215.89V48.72h167.17v44.83h-122.47l-.02,122.34h-44.68ZM226.51,164.09h44.13v106.61h-106.61v-44.26h62.47v-62.34h0ZM215.96,215.89h-51.92v-51.79h51.92v51.79ZM153.49,153.54v62.34h-49.47l.02-111.79h111.92v49.45h-62.47ZM99.75,470.71l-28.01-30.61,27.09-27.09,28.61,28.61-27.69,29.08h0ZM93.44,403.48l-28.83,28.83-15.89-17.36v-133.69h44.74l-.02,122.22h0ZM104.01,270.7v-44.26h49.48v44.26h-49.48ZM330.65,164.09v166.61h-166.61v-49.45h117.16v-117.16h49.45ZM270.65,153.54h-44.13v-49.45h44.13v49.45ZM281.2,48.72h134l17.36,15.89-28.94,28.94h-122.42v-44.83h0ZM413.27,98.82l27.09-27.09,30.61,28.01-29.08,27.69-28.61-28.61h0ZM887.48,71.96l-28.52-28.52,28.52-28.52,28.52,28.52-28.52,28.52Z"/>
</svg>