<?xml version="1.0" encoding="UTF-8"?><svg xmlns="http://www.w3.org/2000/svg" width="4138.502" height="2359.356" viewBox="0 0 4138.502 2359.356"><g id="a"/><g id="b"><g id="c"><g><path d="M3289.444,48.717h309.438l98.178,93.455,38.182-38.182,122.006,.021v49.478h-59.997v187.71h187.71v-59.997h49.445v122.42l-38.075,38.075,93.456,98.177v309.439l-38.166,38.166,43.441,43.441,43.441-43.441-38.166-38.166v-313.658l-54.288-57.031,54.288-59.322v-148.65h-55.38v-44.135h55.38V38.242h-188.273v55.227l-44.265-.008V38.165h-148.344l-59.322,54.288-57.031-54.288h-313.658L3251.278,0l-43.441,43.441,43.441,43.441,38.166-38.166Zm805.617,867.28l-28.52-28.519,28.52-28.52,28.52,28.52-28.52,28.519Zm-120.652-585.35h-166.608V164.039h49.446v117.162h117.161v49.446Zm59.996-114.683h-49.445v-62.475h-62.345v-49.466l111.79,.019v111.922Zm-59.996-51.924v51.924h-51.794v-51.924h51.794Zm0,62.475v44.135h-106.61v-106.611h44.265v62.475h62.345Zm36.661,215.363l28.611-28.61,27.087,27.087-28.011,30.609-27.686-29.085Zm78.715-160.676v134l-15.888,17.361-28.942-28.941v-122.42h44.829Zm-55.38-10.551h-49.445v-44.135h49.445v44.135Zm-111.79-221.857h167.171V215.964h-44.829V93.492l-122.341-.021V48.794Zm-10.551,55.227v49.468h-44.265v-49.476l44.265,.008Zm-188.51-55.303h133.693v44.743l-122.22-.021-28.834-28.834,17.361-15.888Zm-25.153,23.018l27.086,27.086-28.611,28.61-29.084-27.685,30.609-28.011Zm-447.123-56.813l28.52,28.52-28.52,28.52-28.52-28.52,28.52-28.52Z" fill="#ffb243"/><path d="M4095.061,1428.691l-43.441,43.441,38.166,38.166v309.438l-93.456,98.179,38.183,38.182-.021,122.005h-49.478v-59.997h-187.709v187.71h59.996v49.446h-122.42l-38.075-38.075-98.178,93.454h-309.438l-38.166-38.166-43.441,43.441,43.441,43.441,38.166-38.166h313.658l57.03-54.288,59.322,54.288h148.651v-55.379h44.135v55.379h188.272v-188.273h-55.226l.008-44.265h55.296v-148.344l-54.288-59.322,54.288-57.031v-313.658l38.166-38.166-43.441-43.441Zm-844.036,915.744l-28.52-28.52,28.52-28.52,28.52,28.52-28.52,28.52Zm556.831-149.172v-166.608h166.607v49.446h-117.161v117.161h-49.445Zm177.158-51.794h49.467l-.02,111.791h-111.922v-49.446h62.475v-62.345Zm-10.551,51.794h-51.924v-51.794h51.924v51.794Zm-62.475-62.345v62.345h-44.135v-106.61h106.61v44.265h-62.475Zm-215.363,99.007l28.611,28.611-27.086,27.087-30.609-28.011,29.085-27.686Zm160.677,78.715h-134l-17.361-15.887,28.941-28.941h122.42v44.828Zm10.551-55.379v-49.446h44.135v49.446h-44.135Zm221.856-111.791v167.171h-167.17v-44.828h122.472l.021-122.342h44.677Zm-55.226-10.551h-49.468v-44.265h49.476l-.008,44.265Zm55.304-54.816h-44.743l.021-122.22,28.834-28.834,15.888,17.361v133.693Zm-23.018-158.845l-27.087,27.087-28.611-28.611,27.686-29.085,28.012,30.609Zm28.294-475.643l28.52,28.52-28.52,28.52-28.52-28.52,28.52-28.52Z" fill="#ffb243"/><path d="M849.058,2310.639h-309.438l-98.177-93.454-38.182,38.181-122.005-.021v-49.478h59.996v-187.709H153.542v59.996h-49.446v-122.42l38.075-38.075-93.454-98.179v-309.438l38.166-38.166-43.441-43.441L0,1471.879l38.166,38.166v313.658l54.288,57.031-54.288,59.321v148.651h55.379v44.135H38.166v188.272H226.438v-55.226l44.265,.008v55.296h148.343l59.323-54.287,57.031,54.287h313.657l38.166,38.166,43.441-43.441-43.441-43.441-38.166,38.166ZM43.441,1443.359l28.52,28.52-28.52,28.52-28.52-28.52,28.52-28.52Zm120.652,585.35h166.608v166.607h-49.445v-117.161h-117.162v-49.445Zm-59.997,114.683h49.446v62.475h62.345v49.467l-111.791-.02v-111.922Zm59.997,51.924v-51.924h51.794v51.924h-51.794Zm0-62.475v-44.135h106.61v106.61h-44.265v-62.475h-62.345Zm-36.662-215.363l-28.61,28.611-27.086-27.087,28.011-30.609,27.686,29.085Zm-78.714,160.676v-134l15.887-17.361,28.941,28.942v122.42H48.717Zm55.379,10.551h49.446v44.135h-49.446v-44.135Zm111.791,221.856H48.717v-167.17h44.828v122.472l122.342,.021v44.677Zm10.551-55.226v-49.468h44.265v49.476l-44.265-.008Zm188.51,55.304h-133.692v-44.743l122.219,.021,28.834,28.834-17.361,15.887Zm25.152-23.017l-27.087-27.087,28.61-28.611,29.085,27.686-30.609,28.011Zm447.124,56.812l-28.52-28.52,28.52-28.52,28.52,28.52-28.52,28.52Z" fill="#ffb243"/><path d="M849.311,38.166h-313.657l-57.031,54.287-59.323-54.287h-148.651v55.379h-44.134V38.166H38.242V226.438h55.226l-.008,44.265H38.165v148.344l54.287,59.323-54.287,57.031v313.657L0,887.224l43.441,43.441,43.441-43.441-38.166-38.165v-309.438l93.454-98.177-38.182-38.182,.021-122.006h49.478v59.996h187.709V153.543h-59.996v-49.446h122.42l38.075,38.075,98.177-93.455h309.438l38.166,38.166,43.441-43.441L887.477,0l-38.166,38.166ZM43.441,915.743l-28.52-28.52,28.52-28.519,28.52,28.519-28.52,28.52Zm5.352-699.856V48.717H215.964v44.828H93.492l-.021,122.342H48.794Zm177.721-51.793h44.134v106.61h-106.61v-44.265h62.475v-62.344Zm-10.551,51.793h-51.924v-51.793h51.924v51.793Zm-62.475-62.344v62.344h-49.466l.019-111.79h111.922v49.446h-62.475Zm-53.743,317.167l-28.011-30.609,27.086-27.087,28.61,28.61-27.686,29.085Zm-6.307-67.234l-28.834,28.834-15.887-17.361v-133.693h44.743l-.021,122.22Zm10.575-132.772l.008-44.265h49.468v44.265h-49.476Zm226.634-106.61v166.607H164.039v-49.445h117.162v-117.162h49.445Zm-59.997-10.551h-44.134v-49.446h44.134v49.446Zm10.552-104.826h134l17.361,15.888-28.941,28.941h-122.42V48.717Zm132.066,50.104l27.087-27.087,30.609,28.011-29.085,27.686-28.61-28.61Zm474.21-26.86l-28.52-28.52,28.52-28.52,28.52,28.52-28.52,28.52Z" fill="#ffb243"/></g></g></g></svg>