<?xml version="1.0" encoding="UTF-8"?>
<svg id="Calque_1" data-name="Calque 1" xmlns="http://www.w3.org/2000/svg" viewBox="0 0 1282.21 1258.92">
  <defs>
    <style>
      .cls-1 {
        fill: #ceae76;
      }
    </style>
  </defs>
  <path class="cls-1" d="M433.15,48.72h309.44l98.18,93.45,38.18-38.18,122.01.02v49.48h-60v187.71h187.71v-60h49.45v122.42l-38.07,38.08,93.46,98.18v309.44l-38.17,38.17,43.44,43.44,43.44-43.44-38.17-38.17v-313.66l-54.29-57.03,54.29-59.32v-148.65h-55.38v-44.13h55.38V38.24h-188.27v55.23h-44.26v-55.3h-148.34l-59.32,54.29-57.03-54.29h-313.66L394.99,0l-43.44,43.44,43.44,43.44,38.17-38.17h0ZM1238.77,916l-28.52-28.52,28.52-28.52,28.52,28.52-28.52,28.52ZM1118.12,330.65h-166.61v-166.61h49.45v117.16h117.16v49.45h0ZM1178.11,215.96h-49.45v-62.47h-62.34v-49.47l111.79.02v111.92ZM1118.12,164.04v51.92h-51.79v-51.92h51.79ZM1118.12,226.52v44.14h-106.61v-106.61h44.26v62.48h62.35ZM1154.78,441.88l28.61-28.61,27.09,27.09-28.01,30.61-27.69-29.08h0ZM1233.49,281.2v134l-15.89,17.36-28.94-28.94v-122.42h44.83ZM1178.11,270.65h-49.45v-44.13h49.45v44.13ZM1066.32,48.79h167.17v167.17h-44.83v-122.47l-122.34-.02v-44.68h0ZM1055.77,104.02v49.47h-44.26v-49.48s44.26,0,44.26,0ZM867.26,48.72h133.69v44.74l-122.22-.02-28.83-28.83,17.36-15.89h0ZM842.11,71.74l27.09,27.09-28.61,28.61-29.08-27.68,30.61-28.01h0ZM394.99,14.92l28.52,28.52-28.52,28.52-28.52-28.52s28.52-28.52,28.52-28.52Z"/>
</svg>