<?xml version="1.0" encoding="UTF-8"?>
<svg id="Calque_1" data-name="Calque 1" xmlns="http://www.w3.org/2000/svg" viewBox="0 0 1282.21 1258.92">
  <defs>
    <style>
      .cls-1 {
        fill: #ceae76;
      }
    </style>
  </defs>
  <path class="cls-1" d="M849.31,38.17h-313.66l-57.03,54.29-59.32-54.29h-148.65v55.38h-44.13v-55.38H38.24v188.27h55.23v44.26h-55.3v148.34l54.29,59.32-54.29,57.03v313.66L0,887.22l43.44,43.44,43.44-43.44-38.17-38.16v-309.44l93.45-98.18-38.18-38.18.02-122.01h49.48v60h187.71v-187.71h-60v-49.45h122.42l38.08,38.07,98.18-93.46h309.44l38.17,38.17,43.44-43.44L887.48,0l-38.17,38.17ZM43.44,915.74l-28.52-28.52,28.52-28.52,28.52,28.52s-28.52,28.52-28.52,28.52ZM48.79,215.89V48.72h167.17v44.83h-122.47l-.02,122.34h-44.68ZM226.51,164.09h44.13v106.61h-106.61v-44.26h62.47v-62.34h0ZM215.96,215.89h-51.92v-51.79h51.92v51.79ZM153.49,153.54v62.34h-49.47l.02-111.79h111.92v49.45h-62.47ZM99.75,470.71l-28.01-30.61,27.09-27.09,28.61,28.61-27.69,29.08h0ZM93.44,403.48l-28.83,28.83-15.89-17.36v-133.69h44.74l-.02,122.22h0ZM104.01,270.7v-44.26h49.48v44.26h-49.48ZM330.65,164.09v166.61h-166.61v-49.45h117.16v-117.16h49.45ZM270.65,153.54h-44.13v-49.45h44.13v49.45ZM281.2,48.72h134l17.36,15.89-28.94,28.94h-122.42v-44.83h0ZM413.27,98.82l27.09-27.09,30.61,28.01-29.08,27.69-28.61-28.61h0ZM887.48,71.96l-28.52-28.52,28.52-28.52,28.52,28.52-28.52,28.52Z"/>
</svg>