<?xml version="1.0" encoding="UTF-8"?>
<svg id="Calque_1" data-name="Calque 1" xmlns="http://www.w3.org/2000/svg" viewBox="0 0 1282.21 1258.92">
  <defs>
    <style>
      .cls-1 {
        fill: #ceae76;
      }
    </style>
  </defs>
  <path class="cls-1" d="M1238.77,328.26l-43.44,43.44,38.17,38.17v309.44l-93.46,98.18,38.18,38.18-.02,122.01h-49.48v-60h-187.71v187.71h60v49.45h-122.42l-38.07-38.07-98.18,93.45h-309.44l-38.17-38.17-43.44,43.44,43.44,43.44,38.17-38.17h313.66l57.03-54.29,59.32,54.29h148.65v-55.38h44.14v55.38h188.27v-188.27h-55.23v-44.26h55.3v-148.34l-54.29-59.32,54.29-57.03v-313.66l38.17-38.17-43.44-43.44h0ZM394.73,1244l-28.52-28.52,28.52-28.52,28.52,28.52-28.52,28.52ZM951.57,1094.83v-166.61h166.61v49.45h-117.16v117.16h-49.45ZM1128.72,1043.03h49.47l-.02,111.79h-111.92v-49.45h62.48v-62.34h0ZM1118.17,1094.83h-51.92v-51.79h51.92v51.79ZM1055.7,1032.48v62.34h-44.14v-106.61h106.61v44.26h-62.48ZM840.33,1131.49l28.61,28.61-27.09,27.09-30.61-28.01,29.08-27.69h0ZM1001.01,1210.2h-134l-17.36-15.89,28.94-28.94h122.42v44.83h0ZM1011.56,1154.83v-49.45h44.14v49.45h-44.14ZM1233.42,1043.03v167.17h-167.17v-44.83h122.47l.02-122.34h44.68ZM1178.19,1032.48h-49.47v-44.26h49.48v44.26ZM1233.5,977.67h-44.74l.02-122.22,28.83-28.83,15.89,17.36v133.69ZM1210.48,818.82l-27.09,27.09-28.61-28.61,27.69-29.08,28.01,30.61h0ZM1238.77,343.18l28.52,28.52-28.52,28.52-28.52-28.52,28.52-28.52Z"/>
</svg>