<?xml version="1.0" encoding="UTF-8"?>
<svg id="Calque_1" data-name="Calque 1" xmlns="http://www.w3.org/2000/svg" viewBox="0 0 1282.21 1258.92">
  <defs>
    <style>
      .cls-1 {
        fill: #ceae76;
      }
    </style>
  </defs>
  <path class="cls-1" d="M849.06,1210.2h-309.44l-98.18-93.45-38.18,38.18-122.01-.02v-49.48h60v-187.71h-187.71v60h-49.45v-122.42l38.07-38.07-93.45-98.18v-309.44l38.17-38.17-43.44-43.44L0,371.44l38.17,38.17v313.66l54.29,57.03-54.29,59.32v148.65h55.38v44.14h-55.38v188.27h188.27v-55.23h44.26v55.3h148.34l59.32-54.29,57.03,54.29h313.66l38.17,38.17,43.44-43.44-43.44-43.44-38.17,38.17h0ZM43.44,342.92l28.52,28.52-28.52,28.52-28.52-28.52s28.52-28.52,28.52-28.52ZM164.09,928.27h166.61v166.61h-49.45v-117.16h-117.16v-49.44h0ZM104.1,1042.96h49.45v62.48h62.35v49.47l-111.79-.02s0-111.92,0-111.92ZM164.09,1094.88v-51.92h51.79v51.92h-51.79,0ZM164.09,1032.4v-44.14h106.61v106.61h-44.26v-62.48h-62.35ZM127.43,817.04l-28.61,28.61-27.09-27.09,28.01-30.61,27.69,29.08h0ZM48.72,977.72v-134l15.89-17.36,28.94,28.94v122.42h-44.83,0ZM104.1,988.27h49.45v44.14h-49.45v-44.14ZM215.89,1210.12H48.72v-167.17h44.83v122.47l122.34.02v44.68h0ZM226.44,1154.9v-49.47h44.26v49.48h-44.26ZM414.95,1210.2h-133.69v-44.74l122.22.02,28.83,28.83-17.36,15.89h0ZM440.1,1187.19l-27.09-27.09,28.61-28.61,29.08,27.69-30.61,28.01h0ZM887.22,1244l-28.52-28.52,28.52-28.52,28.52,28.52-28.52,28.52Z"/>
</svg>