<?xml version="1.0" encoding="UTF-8"?>
<svg id="_Слой_1" data-name="Слой 1" xmlns="http://www.w3.org/2000/svg" viewBox="0 0 2046.18 2193.02">
  <defs>
    <style>
      .cls-1 {
        fill: #9e4b10;
      }
    </style>
  </defs>
  <path class="cls-1" d="M1681.38,882.14l-642.23,1053.17,639.11-1222.28c-.2-2.19-.44-4.37-.66-6.56l-644.66,1232.91,611.84-1386.69c-.57-1.73-1.07-3.5-1.66-5.22l-612.3,1387.74L1583.34,417.34c-.79-1.34-1.61-2.67-2.41-4l-554.65,1523.68,474.21-1632.29c-.96-1.06-1.89-2.14-2.85-3.19l-472.79,1627.42L1402.8,216.51c-1.07-.79-2.1-1.64-3.18-2.42l-380.16,1722.45L1291.19,150.91c-1.14-.52-2.29-1.01-3.43-1.52l-271.27,1782.64L1171.5,110.84c-1.19-.26-2.38-.52-3.57-.77l-156.08,1833.75V96.51h-3.62v1847.29L852.67,116.27c-1.18.31-2.38.56-3.56.88l154.48,1814.88L734.09,161.02c-1.13.57-2.29,1.08-3.41,1.65l269.96,1773.97L624.2,231.08c-1.05.83-2.11,1.66-3.16,2.5l374.16,1695.28L528.9,323.81c-.95,1.13-1.84,2.3-2.78,3.43l467.7,1609.88L449.35,441.38c-.77,1.43-1.55,2.84-2.31,4.28l542.22,1489.55L392.3,582.23c-.53,1.85-.98,3.74-1.49,5.6l596.34,1351.56L365.51,750.53c-.1,2.48-.1,4.98-.18,7.47l615.59,1177.31L364.81,924.96v6.98l614.73,1008.06-614.73-872.59v6.29l609.52,865.21-609.52-753.89v5.75l611.67,756.54-611.67-662.18v5.34l606.93,657.05-606.93-577.05v5l604.22,574.48-604.22-502.98v4.71l599.49,499.04-599.49-435.35v4.49l599.48,435.35-599.48-377.5v4.27l596.83,375.83-596.83-323.6v4.14l595.94,323.11-595.94-273.67v3.98l592.86,272.26-592.86-225.89v3.89l593.62,226.17-593.62-182.05v3.78l592.83,181.81-592.83-140.19v3.73l591.29,139.83-591.29-98.96v3.67l591.47,98.99-591.47-58.56v3.63l583.38,57.76-583.38-23.31v3.63l570.51,22.8-570.51.79v3.62l578.72-.8-578.72,23.13v3.63l583.38-23.31-583.38,57.76v3.63l591.47-58.56-591.47,98.99v2.91h4.53l586.76-98.2-415.27,98.2h15.8l401.01-94.83-309.22,94.83h12.32l297.68-91.29-239.61,91.29h10.2l228.65-87.12-189.71,87.12h8.66l184.12-84.55-155.95,84.55h7.63l149.21-80.9-128.47,80.9h6.78l124.33-78.3-107.81,78.3h6.18l101.65-73.82-88.68,73.82h5.65l87.76-73.05-76.84,73.05h5.26l74.29-70.63-65.24,70.63h4.94l65.05-70.42-56.93,70.42h4.65l50.14-62.02-43.69,62.02h4.43l44.46-63.11-38.48,63.11h4.26l35.67-58.5-30.59,58.5h4.09l32.63-62.4-27.53,62.4h3.96l25.73-58.32-21.23,58.32h3.86l21.92-60.22-17.5,60.22h3.78l15.1-51.97-11.47,51.97h3.71l13.19-59.74-9.09,59.74h3.66l8.39-55.13-4.69,55.13h3.64l5.7-66.91v66.91h3.62v-66.91l5.7,66.91h3.64l-4.69-55.13,8.39,55.13h3.66l-9.08-59.64,13.16,59.64h3.71l-11.49-52.07,15.13,52.07h3.78l-17.47-60.13,21.89,60.13h3.86l-21.23-58.32,25.73,58.32h3.96l-27.53-62.4,32.63,62.4h4.09l-30.59-58.5,35.67,58.5h4.26l-38.48-63.11,44.46,63.11h4.43l-43.69-62.02,50.14,62.02h4.65l-56.93-70.42,65.05,70.42h4.94l-65.29-70.68,74.34,70.68h5.26l-76.84-73.05,87.76,73.05h5.65l-88.63-73.78,101.6,73.78h6.18l-107.81-78.3,124.33,78.3h6.78l-128.47-80.9,149.21,80.9h7.63l-155.95-84.55,184.12,84.55h8.66l-189.71-87.12,228.65,87.12h10.2l-239.61-91.29,297.68,91.29h12.32l-309.22-94.83,401.01,94.83h15.8l-415.27-98.2,586.76,98.2h21.9l-608.84-101.9,617.58,61.15v-3.63l-609.49-60.35,609.49,24.36v-3.63l-604.83-24.17,604.83.84v-3.62l-596.62-.83,596.62-23.84v-3.63l-609.49,24.36,609.49-60.35v-3.63l-617.58,61.15,617.58-103.36v-3.67l-617.41,103.33,617.41-146v-3.74l-618.95,146.37,618.95-189.82v-3.78l-619.73,190.06,619.73-236.12v-3.89l-618.98,235.84,618.98-284.25v-3.98l-622.06,285.66,622.06-337.27v-4.13l-622.94,337.75,622.94-392.27v-4.27l-625.59,393.94,625.59-454.31v-4.49l-625.54,454.28,625.54-520.73v-4.71l-630.33,524.71,630.33-599.3v-5l-633.09,601.93,633.09-685.37v-5.34l-637.78,690.45,637.78-788.83v-5.75l-635.64,786.18,635.64-902.27v-6.29l-640.84,909.65,640.84-1050.88v-6.98Z"/>
</svg>